<svg width="98" height="98" viewBox="0 0 98 98" fill="none" xmlns="http://www.w3.org/2000/svg">
<g clip-path="url(#clip0_8_212)">
<path d="M45.7047 43.8712H33.2771V39.6585C38.4871 39.0498 42.5456 34.6161 42.5456 29.2448C42.5456 23.8173 33.9481 13.9769 32.9692 12.8732C32.7369 12.6116 32.4047 12.4626 32.055 12.4626C31.7055 12.4626 31.373 12.6118 31.1408 12.8732C30.1607 13.9767 21.5632 23.8173 21.5632 29.2448C21.5632 34.6159 25.6219 39.0498 30.8329 39.6585V43.8712H18.4041C17.7295 43.8712 17.1819 44.4176 17.1819 45.0934V96.7449C17.1819 97.4206 17.7295 97.967 18.4041 97.967H45.705C46.3795 97.967 46.9271 97.4206 46.9271 96.7449V45.0934C46.9268 44.4174 46.3793 43.8712 45.7047 43.8712ZM30.8326 32.2783V37.1887C26.9746 36.5973 24.0072 33.267 24.0072 29.245C24.0072 25.8341 29.178 18.978 32.0548 15.5561C34.9315 18.978 40.1011 25.8341 40.1011 29.245C40.1011 33.2658 37.1339 36.5973 33.2769 37.1887V32.2783C33.2769 31.6026 32.7293 31.0562 32.0548 31.0562C31.3802 31.0562 30.8326 31.6026 30.8326 32.2783ZM44.4826 95.5228H19.6259V46.3155H44.4826V95.5228Z" fill="#0C0304"/>
<path d="M79.611 35.5377H67.1822V30.0699C72.9371 29.4576 77.4346 24.5766 77.4346 18.6627C77.4346 12.7073 67.9546 1.8586 66.8731 0.641258C66.41 0.118279 65.5092 0.118279 65.0461 0.641258C63.9646 1.85836 54.4858 12.7073 54.4858 18.6627C54.4858 24.5766 58.9845 29.4576 64.7382 30.0699V35.5377H52.3101C51.6355 35.5377 51.088 36.084 51.088 36.7598V96.7778C51.088 97.4535 51.6355 97.9999 52.3101 97.9999H79.611C80.2855 97.9999 80.8331 97.4535 80.8331 96.7778V36.7598C80.8331 36.0838 80.2855 35.5377 79.611 35.5377ZM64.738 21.0702V27.5999C60.3357 27.001 56.9298 23.2272 56.9298 18.6627C56.9298 14.813 62.7885 7.07837 65.9601 3.32156C69.1314 7.07598 74.9904 14.8094 74.9904 18.6627C74.9904 23.226 71.5844 27 67.1822 27.6001V21.0702C67.1822 20.3944 66.6346 19.848 65.9601 19.848C65.2855 19.848 64.738 20.3944 64.738 21.0702ZM78.3889 95.5557H53.5322V37.9819H78.3889V95.5557Z" fill="#0C0304"/>
<path d="M22.8915 10.7862L20.2028 9.31604C17.7245 7.95954 15.6982 5.93327 14.3441 3.4561L12.8737 0.767208C12.6599 0.375033 12.2481 0.130371 11.802 0.130371C11.3559 0.130371 10.9441 0.373601 10.7303 0.767208L9.25895 3.45586C7.90245 5.93303 5.87617 7.95931 3.399 9.31581L0.710111 10.7862C0.31913 11 0.074707 11.4118 0.074707 11.8579C0.074707 12.304 0.31913 12.7158 0.710111 12.9296L3.39876 14.3998C5.87593 15.7541 7.90221 17.7816 9.25752 20.2599L10.7288 22.9486C10.9439 23.341 11.3544 23.5854 11.8006 23.5854C12.2479 23.5854 12.6584 23.3422 12.8723 22.9486L14.3424 20.2599C15.698 17.7816 17.7254 15.7541 20.2016 14.4L22.8915 12.9299C23.2837 12.716 23.5281 12.3043 23.5281 11.8581C23.5281 11.412 23.2837 11 22.8915 10.7862ZM19.0309 12.2565C16.1429 13.8355 13.782 16.1978 12.2004 19.0882L11.802 19.8167L11.4036 19.0882C9.82227 16.1978 7.45991 13.8355 4.57314 12.2565L3.84464 11.8581L4.57314 11.4598C7.45967 9.8796 9.82203 7.51605 11.4024 4.62809L11.8008 3.89959L12.1992 4.62809C13.7793 7.51605 16.1417 9.8796 19.0309 11.4598L19.7593 11.8581L19.0309 12.2565Z" fill="#0C0304"/>
<path d="M97.2925 8.17071L95.2271 7.04026C93.3732 6.02581 91.8565 4.50914 90.842 2.65401L89.7128 0.589784C89.2815 -0.197191 87.9956 -0.195998 87.5679 0.589784L86.4386 2.65401C85.423 4.50914 83.9075 6.02581 82.0524 7.04026L79.9869 8.17071C79.5948 8.38458 79.3515 8.79633 79.3515 9.24245C79.3515 9.68857 79.596 10.1003 79.9869 10.3142L82.0524 11.4435C83.9063 12.4579 85.423 13.9746 86.4374 15.8297L87.5667 17.8939C87.7805 18.2861 88.1923 18.5305 88.6384 18.5305C89.0845 18.5305 89.4963 18.2873 89.7101 17.8939L90.8394 15.8297C91.8551 13.9746 93.3705 12.4579 95.2257 11.4435L97.2899 10.3142C97.6809 10.1003 97.9253 9.68857 97.9253 9.24245C97.9253 8.79633 97.6837 8.38458 97.2925 8.17071ZM94.0551 9.29998C91.7894 10.5381 89.9367 12.3894 88.6974 14.6577L88.6398 14.7615L88.5838 14.6577C87.3433 12.3906 85.4905 10.5378 83.226 9.29998L83.121 9.24245L83.2248 9.18373C85.4905 7.94563 87.3433 6.09431 88.5826 3.826L88.6389 3.72217L88.6964 3.826C89.9369 6.09312 91.7897 7.94586 94.0541 9.18373L94.1592 9.24245L94.0551 9.29998Z" fill="#0C0304"/>
<path d="M50.1325 10.6358H47.4414V7.94477C47.4414 7.26903 46.8939 6.72266 46.2193 6.72266C45.5448 6.72266 44.9972 7.26903 44.9972 7.94477V10.6358H42.3062C41.6316 10.6358 41.0841 11.1822 41.0841 11.8579C41.0841 12.5337 41.6316 13.08 42.3062 13.08H44.9972V15.7699C44.9972 16.4456 45.5448 16.992 46.2193 16.992C46.8939 16.992 47.4414 16.4456 47.4414 15.7699V13.08H50.1325C50.807 13.08 51.3546 12.5337 51.3546 11.8579C51.3546 11.1822 50.807 10.6358 50.1325 10.6358Z" fill="#0C0304"/>
</g>
<defs>
<clipPath id="clip0_8_212">
<rect width="98" height="98" fill="white"/>
</clipPath>
</defs>
</svg>
