<svg width="31" height="31" viewBox="0 0 31 31" fill="none" xmlns="http://www.w3.org/2000/svg">
<g clip-path="url(#clip0_9_249)">
<path d="M21.745 5.5411H24.7783V0.0031265H19.2659C18.806 -0.0160073 13.2004 -0.123157 11.7475 5.41736C11.7265 5.4754 11.2622 6.79309 11.2622 9.87108L6.22168 9.88639V15.6948L11.2685 15.6801V31.0006H18.9776V15.6935H24.0799V9.86981H18.9776V8.03742C18.9776 6.89832 19.4578 5.5411 21.745 5.5411ZM22.8043 11.1448V14.4173H17.702V29.7243H12.5441V14.4007L7.49727 14.4154V11.1582L12.5575 11.1435L12.5441 10.4948C12.4778 7.23444 12.9428 5.86318 12.9638 5.79749C14.2177 1.02551 19.0056 1.26532 19.211 1.27808L23.5027 1.27935V4.26614H21.745C18.7645 4.26614 17.7026 6.21397 17.7026 8.03679V11.1448H22.8043Z" fill="#0C0304"/>
</g>
<defs>
<clipPath id="clip0_9_249">
<rect width="31" height="31" fill="white"/>
</clipPath>
</defs>
</svg>
