<svg width="105" height="61" viewBox="0 0 105 61" fill="none" xmlns="http://www.w3.org/2000/svg">
<path d="M6.76758 19.2383C6.88477 19.2383 6.99219 19.248 7.08984 19.2676C7.34375 19.3066 7.4707 19.5508 7.4707 20H0.585938V19.2383C0.722656 19.2383 0.859375 19.2285 0.996094 19.209C1.875 19.1309 2.31445 18.6328 2.31445 17.7148V1.71875H0.585938V0.957031H6.03516V9.59961C6.17188 9.32617 6.33789 9.05273 6.5332 8.7793C7.4707 7.56836 8.73047 6.96289 10.3125 6.96289C10.8203 6.96289 11.2891 7.04102 11.7188 7.19727C13.457 7.7832 14.3262 9.29688 14.3262 11.7383V19.2383H15.293C15.4102 19.2383 15.5273 19.248 15.6445 19.2676C15.8984 19.3066 16.0254 19.5508 16.0254 20H9.46289V19.2383C9.79492 19.2383 10.0586 19.1895 10.2539 19.0918C10.4883 18.9551 10.6055 18.4961 10.6055 17.7148V11.2402C10.6055 11.0449 10.5957 10.8691 10.5762 10.7129C10.4395 9.24805 9.77539 8.51562 8.58398 8.51562C8.27148 8.51562 7.94922 8.60352 7.61719 8.7793C6.5625 9.3457 6.03516 10.4883 6.03516 12.207V19.2383H6.76758ZM32.7574 13.6426C32.7574 15.4785 32.8746 16.8164 33.109 17.6562C33.4605 18.9062 34.2418 19.5312 35.4527 19.5312C36.1363 19.5312 36.693 19.3262 37.1227 18.916C37.8648 18.1738 38.2359 16.377 38.2359 13.5254C38.2359 11.748 38.1187 10.4492 37.8844 9.62891C37.5328 8.35938 36.732 7.72461 35.482 7.72461C34.7398 7.72461 34.1637 7.94922 33.7535 8.39844C33.0895 9.16016 32.7574 10.9082 32.7574 13.6426ZM35.6285 6.96289C37.3082 6.96289 38.7437 7.42188 39.9352 8.33984C41.4781 9.57031 42.2496 11.2793 42.2496 13.4668C42.2496 15.1074 41.7613 16.5527 40.7848 17.8027C39.4762 19.4629 37.6695 20.293 35.3648 20.293C33.6852 20.293 32.2398 19.7852 31.0289 18.7695C29.5055 17.4805 28.7437 15.7324 28.7437 13.5254C28.7437 11.9629 29.193 10.5957 30.0914 9.42383C31.3805 7.7832 33.2262 6.96289 35.6285 6.96289ZM61.0617 19.2383C61.1789 19.2383 61.2863 19.248 61.384 19.2676C61.6379 19.3066 61.7648 19.5508 61.7648 20H55.1145V19.2383C55.2707 19.2383 55.4172 19.2285 55.5539 19.209C56.3937 19.1113 56.8137 18.6133 56.8137 17.7148V8.16406H55.1145V7.40234H60.3293L60.4758 9.54102C61.3352 7.8418 62.7023 6.98242 64.5773 6.96289C64.8898 6.96289 65.2023 7.00195 65.5148 7.08008C66.7062 7.43164 67.5363 8.30078 68.0051 9.6875C68.9426 7.89062 70.3586 6.98242 72.2531 6.96289C72.9367 6.96289 73.5715 7.14844 74.1574 7.51953C75.427 8.32031 76.0617 9.67773 76.0617 11.5918V19.2383H77.0285C77.1457 19.2383 77.2629 19.248 77.3801 19.2676C77.634 19.3066 77.7609 19.5508 77.7609 20H71.0812V19.2383C71.3937 19.2383 71.6379 19.209 71.8137 19.1504C72.1848 18.9941 72.3703 18.5156 72.3703 17.7148V11.2402C72.3703 10.752 72.3117 10.3027 72.1945 9.89258C71.882 8.89648 71.3059 8.39844 70.466 8.39844C70.2707 8.39844 70.0754 8.4375 69.8801 8.51562C68.9621 8.90625 68.4348 9.91211 68.298 11.5332V11.7383V19.2383H68.7961C68.9133 19.2383 69.0305 19.248 69.1477 19.2676C69.4016 19.3066 69.5285 19.5508 69.5285 20H63.3176V19.2383C63.6301 19.2383 63.8742 19.209 64.05 19.1504C64.4211 18.9941 64.6066 18.5156 64.6066 17.7148V11.2402C64.6066 10.7129 64.5383 10.2344 64.4016 9.80469C64.0891 8.90625 63.5715 8.45703 62.8488 8.45703C62.5949 8.45703 62.341 8.52539 62.0871 8.66211C61.1887 9.13086 60.6809 10.1367 60.5637 11.6797L60.5344 19.2383H61.0617ZM97.0418 7.72461C95.4793 7.7832 94.6297 9.43359 94.493 12.6758L96.368 12.7637C97.1492 12.8027 97.7352 12.7539 98.1258 12.6172C98.6727 12.4023 98.9461 11.8359 98.9461 10.918C98.9266 8.82812 98.2918 7.76367 97.0418 7.72461ZM102.52 16.9824C102.403 17.2949 102.247 17.5977 102.052 17.8906C101.055 19.4922 99.4148 20.293 97.1297 20.293C95.8406 20.293 94.6883 20.0293 93.6727 19.502C91.5437 18.3887 90.4793 16.416 90.4793 13.584C90.4793 11.8457 90.948 10.3906 91.8855 9.21875C93.116 7.71484 94.8348 6.96289 97.0418 6.96289C98.2527 6.96289 99.3367 7.16797 100.294 7.57812C101.993 8.33984 102.843 9.55078 102.843 11.2109C102.843 11.543 102.784 11.8457 102.667 12.1191C102.159 13.2129 100.333 13.7109 97.1883 13.6133L94.493 13.5254C94.5125 14.6582 94.6102 15.6348 94.7859 16.4551C95.2352 18.4473 96.241 19.4434 97.8035 19.4434C98.2918 19.4434 98.7703 19.3555 99.2391 19.1797C100.411 18.75 101.27 17.9395 101.817 16.748L102.52 16.9824ZM7.91016 54.2383C8.02734 54.2383 8.13477 54.248 8.23242 54.2676C8.48633 54.3066 8.61328 54.5508 8.61328 55H0.439453V54.2383C0.986328 54.2383 1.42578 54.1992 1.75781 54.1211C2.40234 53.9453 2.72461 53.457 2.72461 52.6562V36.7188H0.439453V35.957H6.44531V54.2383H7.91016ZM27.777 54.2383C27.8941 54.2383 28.0016 54.248 28.0992 54.2676C28.3531 54.3066 28.4801 54.5508 28.4801 55H21.273V54.2383C21.527 54.2383 21.7516 54.2188 21.9469 54.1797C22.6305 54.0625 22.9723 53.5742 22.9723 52.7148V43.1641H21.273V42.4023H26.693V54.2383H27.777ZM26.9566 38.5645C26.9566 38.9355 26.859 39.2871 26.6637 39.6191C26.2535 40.3418 25.6187 40.7031 24.7594 40.7031C24.4078 40.7031 24.066 40.6152 23.734 40.4395C22.9723 40.0488 22.5914 39.4238 22.5914 38.5645C22.5914 38.1934 22.6793 37.8418 22.8551 37.5098C23.2848 36.748 23.9195 36.3672 24.7594 36.3672C25.1305 36.3672 25.482 36.4648 25.8141 36.6602C26.5758 37.0703 26.9566 37.7051 26.9566 38.5645ZM45.4465 46.9141C45.4465 48.2617 45.5148 49.1992 45.6516 49.7266C45.8859 50.625 46.4816 51.0742 47.4387 51.0742C48.0246 51.0742 48.4836 50.9082 48.8156 50.5762C49.2844 50.0488 49.5187 48.7988 49.5187 46.8262C49.5187 45.5371 49.4504 44.6191 49.3137 44.0723C49.0598 43.1738 48.4445 42.7246 47.468 42.7246C46.8625 42.7246 46.4035 42.9004 46.091 43.252C45.6613 43.7598 45.4465 44.9805 45.4465 46.9141ZM47.5852 41.9629C48.9523 41.9629 50.1047 42.2559 51.0422 42.8418C51.1203 42.627 51.2082 42.4121 51.3059 42.1973C51.8723 41.0254 52.6633 40.4395 53.6789 40.4395C54.05 40.4395 54.3918 40.5078 54.7043 40.6445C55.3879 40.9375 55.7297 41.4355 55.7297 42.1387C55.7297 42.2363 55.7199 42.334 55.7004 42.4316C55.5637 42.9785 55.2023 43.252 54.6164 43.252C54.3625 43.252 54.0891 43.1348 53.7961 42.9004C53.425 42.5684 53.1125 42.4023 52.8586 42.4023C52.3898 42.4219 51.9797 42.7051 51.6281 43.252C52.6828 44.1699 53.2199 45.3418 53.2395 46.7676C53.2395 47.8223 52.927 48.7793 52.302 49.6387C51.2082 51.1035 49.5871 51.8359 47.4387 51.8359L44.3039 51.8066C44.2258 51.8066 44.1477 51.8164 44.0695 51.8359C43.5812 51.8945 43.3371 52.1484 43.3371 52.5977C43.3371 52.6562 43.3469 52.7148 43.3664 52.7734C43.4641 53.2031 43.7668 53.4277 44.2746 53.4473L50.3391 53.5645C50.6125 53.5645 50.8762 53.584 51.1301 53.623C53.2785 53.8965 54.3527 55.0195 54.3527 56.9922C54.3527 57.5 54.2062 57.9883 53.9133 58.457C52.9758 59.9609 50.9055 60.7129 47.7023 60.7129C46.3742 60.7129 45.2414 60.5371 44.3039 60.1855C42.9172 59.6582 42.2238 58.8672 42.2238 57.8125C42.2238 57.2266 42.4777 56.6309 42.9855 56.0254C42.2824 55.4395 41.9211 54.6777 41.9016 53.7402C41.9016 53.3496 41.9797 52.959 42.1359 52.5684C42.5852 51.5332 43.3859 51.0254 44.5383 51.0449H44.5676C44.2941 50.8887 44.0305 50.7129 43.7766 50.5176C42.4094 49.4629 41.7258 48.2324 41.7258 46.8262C41.7258 45.8301 42.0187 44.9316 42.6047 44.1309C43.6594 42.6855 45.3195 41.9629 47.5852 41.9629ZM47.7023 59.9219C48.6203 59.9219 49.4602 59.8438 50.2219 59.6875C52.0383 59.3359 52.9465 58.7012 52.9465 57.7832C52.9465 57.5879 52.9074 57.4219 52.8293 57.2852C52.634 56.9336 51.9699 56.7578 50.8371 56.7578L44.9191 56.6992C44.4895 56.6992 44.0793 56.6211 43.6887 56.4648C43.3957 56.875 43.2492 57.2852 43.2492 57.6953C43.2492 57.9102 43.298 58.125 43.3957 58.3398C43.884 59.3945 45.3195 59.9219 47.7023 59.9219ZM73.4578 54.2383C73.575 54.2383 73.6824 54.248 73.7801 54.2676C74.034 54.3066 74.1609 54.5508 74.1609 55H67.2762V54.2383C67.4129 54.2383 67.5496 54.2285 67.6863 54.209C68.5652 54.1309 69.0047 53.6328 69.0047 52.7148V36.7188H67.2762V35.957H72.7254V44.5996C72.8621 44.3262 73.0281 44.0527 73.2234 43.7793C74.1609 42.5684 75.4207 41.9629 77.0027 41.9629C77.5105 41.9629 77.9793 42.041 78.409 42.1973C80.1473 42.7832 81.0164 44.2969 81.0164 46.7383V54.2383H81.9832C82.1004 54.2383 82.2176 54.248 82.3348 54.2676C82.5887 54.3066 82.7156 54.5508 82.7156 55H76.1531V54.2383C76.4852 54.2383 76.7488 54.1895 76.9441 54.0918C77.1785 53.9551 77.2957 53.4961 77.2957 52.7148V46.2402C77.2957 46.0449 77.2859 45.8691 77.2664 45.7129C77.1297 44.248 76.4656 43.5156 75.2742 43.5156C74.9617 43.5156 74.6395 43.6035 74.3074 43.7793C73.2527 44.3457 72.7254 45.4883 72.7254 47.207V54.2383H73.4578ZM94.9945 43.3105V42.5488H97.016V39.7656L100.737 39.1504V42.5488H104.604V43.3105H100.737V52.1875C100.737 52.4414 100.756 52.6855 100.795 52.9199C100.952 53.9355 101.391 54.4434 102.114 54.4434C102.231 54.4434 102.348 54.4336 102.465 54.4141C103.227 54.2578 103.803 53.3887 104.194 51.8066L104.985 51.9238C104.829 52.7246 104.614 53.3691 104.34 53.8574C103.774 54.834 102.739 55.3223 101.235 55.3223C101 55.3223 100.766 55.3125 100.532 55.293C98.1879 55.0195 97.016 53.4668 97.016 50.6348V43.3105H94.9945Z" fill="url(#paint0_linear_6_158)"/>
<defs>
<linearGradient id="paint0_linear_6_158" x1="-6.57275e-07" y1="4" x2="106" y2="65" gradientUnits="userSpaceOnUse">
<stop stop-color="#FA9A2D"/>
<stop offset="0.939665" stop-color="#E47E51"/>
</linearGradient>
</defs>
</svg>
