<svg width="98" height="98" viewBox="0 0 98 98" fill="none" xmlns="http://www.w3.org/2000/svg">
<g clip-path="url(#clip0_8_202)">
<path d="M93.1207 80.4077L72.9111 60.1979L81.0853 57.2229C81.7822 56.9693 82.1964 56.2519 82.0674 55.5215L79.8777 43.1036L86.1824 32.1834C86.5532 31.5412 86.4094 30.7254 85.8413 30.2488L76.1818 22.1437L73.9921 9.72571C73.8633 8.9955 73.229 8.4632 72.4873 8.4632H59.8775L50.2186 0.35735C49.6503 -0.119442 48.8221 -0.119442 48.2538 0.35735L38.5945 8.46262H25.9849C25.2432 8.46262 24.6089 8.99492 24.48 9.72514L22.2904 22.143L12.6307 30.2482C12.0626 30.7248 11.9188 31.5406 12.2896 32.1828L18.5945 43.1031L16.4048 55.5209C16.2758 56.2513 16.69 56.9685 17.3869 57.2223L25.2152 60.0714L4.87931 80.4077C4.45879 80.8284 4.32041 81.4554 4.52521 82.014C4.72982 82.5727 5.24011 82.9616 5.83309 83.011L18.3753 84.0565L19.4208 96.5985C19.4702 97.1915 19.8591 97.7018 20.4178 97.9064C20.5893 97.9694 20.767 97.9998 20.9432 97.9998C21.3416 97.9998 21.7324 97.844 22.0241 97.5523L49.0001 70.5763L75.9761 97.5523C76.268 97.844 76.6586 97.9998 77.0569 97.9998C77.2332 97.9998 77.411 97.9694 77.5824 97.9064C78.1411 97.7018 78.53 97.1915 78.5792 96.5985L79.6248 84.0567L92.1669 83.0112C92.7599 82.9618 93.2702 82.5729 93.4748 82.014C93.6796 81.4553 93.5412 80.8286 93.1207 80.4077ZM22.1927 93.0615L21.3136 82.5141C21.2516 81.7705 20.6617 81.1802 19.9177 81.1182L9.37027 80.2391L28.3841 61.2252L29.2361 61.5353L35.5408 72.4555C35.8203 72.9396 36.3313 73.2198 36.8646 73.2198C37.0388 73.2198 37.2152 73.19 37.3869 73.1276L44.8378 70.4157L22.1927 93.0615ZM50.4821 66.0165L49.7584 65.7533C49.421 65.6302 49.0508 65.6302 48.7134 65.7533L47.6415 66.1434L37.5466 69.8174L31.6047 59.5259C31.425 59.2148 31.1417 58.9769 30.8041 58.8539L28.5149 58.0205L19.6373 54.7895L21.701 43.0868C21.7636 42.7327 21.6993 42.3683 21.5198 42.057L15.5778 31.7655L24.6814 24.1269C24.9566 23.8961 25.1417 23.5756 25.2037 23.2219L27.2673 11.519H39.1507C39.5102 11.519 39.858 11.3925 40.133 11.1614L49.2363 3.52282L58.3396 11.1614C58.6148 11.3925 58.9626 11.519 59.3218 11.519H71.2055L73.269 23.2219C73.3314 23.5756 73.5163 23.8963 73.7914 24.1269L82.8948 31.7655L76.953 42.057C76.7733 42.3681 76.7092 42.7327 76.7716 43.0866L78.8353 54.7893L69.6118 58.1464L67.6683 58.8539C67.3308 58.9769 67.0472 59.2147 66.8676 59.5259L60.926 69.8174L50.4848 66.0172C50.4839 66.0168 50.4829 66.0168 50.4821 66.0165ZM78.0825 81.1184C77.3389 81.1804 76.7486 81.7703 76.6866 82.5143L75.8076 93.0617L52.8919 70.1455L61.0853 73.1278C61.257 73.1903 61.4334 73.22 61.6076 73.22C62.1409 73.22 62.6519 72.9398 62.9314 72.4557L69.2359 61.5355L69.742 61.3513L88.6299 80.2393L78.0825 81.1184Z" fill="#0C0304"/>
<path d="M49.0003 13.1152C35.5749 13.1152 24.6527 24.0374 24.6527 37.4628C24.6527 50.8882 35.5751 61.8102 49.0003 61.8102C62.4257 61.8102 73.3477 50.888 73.3477 37.4628C73.3477 24.0376 62.4255 13.1152 49.0003 13.1152ZM49.0003 58.7541C37.2602 58.7541 27.7089 49.2027 27.7089 37.4626C27.7089 25.7226 37.2602 16.1714 49.0003 16.1714C60.7402 16.1714 70.2917 25.7228 70.2917 37.4628C70.2917 49.2029 60.7402 58.7541 49.0003 58.7541Z" fill="#0C0304"/>
<path d="M66.5867 32.5968C66.3821 31.967 65.7954 31.5408 65.1333 31.5408H53.8553L50.3704 20.8148C50.1658 20.185 49.5791 19.7588 48.917 19.7588C48.2552 19.7588 47.6683 20.185 47.4637 20.8148L43.9786 31.5408H32.7006C32.0387 31.5408 31.4518 31.967 31.2472 32.5968C31.0426 33.2263 31.2667 33.9161 31.8025 34.3053L40.9266 40.9342L37.4415 51.6604C37.2369 52.2899 37.461 52.9798 37.9968 53.3689C38.2645 53.5636 38.5796 53.6608 38.8948 53.6608C39.2101 53.6608 39.5251 53.5634 39.7929 53.3689L48.917 46.7401L58.041 53.3689C58.5765 53.758 59.3018 53.758 59.8371 53.3689C60.3727 52.98 60.5966 52.2901 60.3924 51.6604L56.9073 40.9342L66.0314 34.3053C66.5671 33.9161 66.7911 33.2263 66.5867 32.5968ZM54.2129 39.1145C53.6773 39.5035 53.4532 40.1933 53.6576 40.823L56.0324 48.132L49.8149 43.615C49.2794 43.2259 48.5541 43.2259 48.0188 43.615L41.8011 48.1322L44.1759 40.823C44.3805 40.1935 44.1564 39.5036 43.6206 39.1147L37.4034 34.5973H45.0889C45.7508 34.5973 46.3377 34.1711 46.5423 33.5414L48.917 26.2323L51.2916 33.5414C51.4962 34.1711 52.0829 34.5973 52.745 34.5973H60.4305L54.2129 39.1145Z" fill="#0C0304"/>
</g>
<defs>
<clipPath id="clip0_8_202">
<rect width="98" height="98" fill="white"/>
</clipPath>
</defs>
</svg>
