<svg width="98" height="98" viewBox="0 0 98 98" fill="none" xmlns="http://www.w3.org/2000/svg">
<g clip-path="url(#clip0_8_171)">
<path d="M46.8406 16.3345C46.6841 15.8523 46.2848 15.4886 45.7904 15.3774L33.5578 12.6267L27.1616 1.84288C26.9032 1.40685 26.4338 1.13965 25.927 1.13965C25.4201 1.13965 24.951 1.40704 24.6924 1.84288L18.2962 12.6267L6.06357 15.3774C5.56917 15.4886 5.16989 15.8523 5.01332 16.3345C4.85675 16.8166 4.96585 17.3455 5.30062 17.7262L13.5799 27.1415L12.416 39.6254C12.3689 40.1301 12.5915 40.622 13.0017 40.9201C13.2511 41.1013 13.547 41.1944 13.8456 41.1944C14.038 41.1944 14.2315 41.1557 14.4139 41.0768L25.927 36.1121L29.2647 37.5513C29.9927 37.866 30.8373 37.5297 31.1512 36.8016C31.4653 36.0737 31.1296 35.229 30.4015 34.9151L26.4955 33.2307C26.1329 33.0741 25.7214 33.0741 25.3587 33.2307L15.4995 37.4822L16.4962 26.7916C16.5327 26.3982 16.4057 26.0072 16.1448 25.7103L9.05487 17.6477L19.53 15.2921C19.9155 15.2054 20.2481 14.9636 20.4497 14.6239L25.927 5.38945L31.4043 14.6239C31.6058 14.9636 31.9385 15.2054 32.324 15.2921L42.7993 17.6477L35.709 25.7103C35.4481 26.007 35.321 26.3981 35.3576 26.7916L36.3542 37.4822L35.5178 37.1214C34.7899 36.8069 33.9452 37.143 33.6313 37.8712C33.3172 38.5991 33.6529 39.4438 34.381 39.7577L37.4399 41.0768C37.9052 41.2776 38.4419 41.2179 38.8521 40.9201C39.2623 40.622 39.4849 40.1301 39.4378 39.6254L38.2739 27.1415L46.5533 17.7262C46.8881 17.3453 46.9972 16.8166 46.8406 16.3345Z" fill="#0C0304"/>
<path d="M52.7222 83.9955L45.5829 68.6644L47.3383 64.25C47.6313 63.5133 47.2715 62.6786 46.5348 62.3855C45.7988 62.0929 44.9633 62.4523 44.6703 63.1891L42.6864 68.1789C42.5403 68.5462 42.5524 68.9573 42.7191 69.3154L49.0979 83.0134L34.0187 82.043C33.6234 82.0156 33.237 82.1557 32.948 82.4251L21.8916 92.7246L18.1547 78.0836C18.0571 77.7008 17.806 77.3752 17.4605 77.1834L4.24846 69.8508L7.47041 67.8127C8.14033 67.3889 8.33997 66.5021 7.916 65.832C7.49223 65.1621 6.60525 64.9626 5.93533 65.3864L0.668009 68.7184C0.239833 68.9893 -0.0139727 69.4663 0.000574233 69.9727C0.0151211 70.4796 0.295723 70.9408 0.73883 71.1868L15.5258 79.3934L19.7082 95.7797C19.8334 96.271 20.2083 96.6596 20.6947 96.8022C20.8277 96.8412 20.9638 96.8604 21.0988 96.8604C21.4571 96.8604 21.8081 96.7262 22.0776 96.4751L34.452 84.9478L51.3287 86.034C51.8342 86.0664 52.3198 85.8302 52.606 85.4116C52.892 84.9933 52.9362 84.4549 52.7222 83.9955Z" fill="#0C0304"/>
<path d="M51.634 51.5424C51.3245 51.1412 50.8275 50.9336 50.3231 50.9942L33.5364 53.0465L20.5213 42.2477C20.1308 41.9242 19.5991 41.8301 19.1219 42.0006C18.6445 42.171 18.2925 42.5804 18.1955 43.078L14.9598 59.6772L10.9092 62.24C10.2393 62.6637 10.0397 63.5507 10.4636 64.2206C10.7368 64.6526 11.2023 64.8888 11.6781 64.8888C11.9405 64.8888 12.2062 64.8169 12.4443 64.6658L17.0182 61.7724C17.3522 61.5612 17.5841 61.2217 17.6598 60.8339L20.5508 46.0027L32.1797 55.6512C32.4838 55.9036 32.8785 56.0194 33.2705 55.9714L48.2691 54.1379L46.841 57.7293C46.548 58.466 46.9078 59.3007 47.6446 59.5938C48.3809 59.8864 49.2162 59.5272 49.509 58.7902L51.8314 52.9497C52.0186 52.4786 51.9435 51.9438 51.634 51.5424Z" fill="#0C0304"/>
<path d="M90.3793 46.5578L81.6194 40.9309L79.6988 30.6983C79.6054 30.2002 79.2561 29.7881 78.7799 29.6145C78.3037 29.4409 77.7714 29.5311 77.379 29.8519L69.3204 36.4439L58.9952 35.1085C58.4919 35.0447 57.993 35.2482 57.6806 35.6475C57.3682 36.0467 57.2895 36.5809 57.4735 37.0533L61.2526 46.7546L56.7919 56.1618C56.5748 56.6197 56.6152 57.1583 56.8983 57.5786C57.1812 57.999 57.6645 58.2413 58.1711 58.2099L68.5655 57.6137L76.1339 64.7631C76.404 65.0182 76.7579 65.1551 77.1198 65.1551C77.2515 65.1551 77.3844 65.1371 77.5145 65.0996C78.0018 64.9602 78.3795 64.5744 78.5083 64.084L81.1532 54.0143L90.2913 49.0256C90.7361 48.7829 91.02 48.3234 91.038 47.8169C91.0561 47.3104 90.8058 46.8319 90.3793 46.5578ZM79.2339 51.7911C78.8873 51.9806 78.6337 52.3044 78.5334 52.6865L76.346 61.0142L70.087 55.1016C69.8198 54.8492 69.4668 54.7096 69.1012 54.7096C69.0739 54.7096 69.0465 54.7104 69.0189 54.7119L60.423 55.205L64.1118 47.4251C64.2812 47.0681 64.2958 46.6572 64.1524 46.2889L61.0271 38.2661L69.566 39.3705C69.9589 39.4207 70.3532 39.3079 70.6591 39.0579L77.3233 33.6065L78.9118 42.0688C78.9845 42.4571 79.2144 42.7982 79.5467 43.0118L86.791 47.6653L79.2339 51.7911Z" fill="#0C0304"/>
<path d="M92.9624 60.4841C90.1847 60.4841 87.9247 62.7441 87.9247 65.5218C87.9247 68.2995 90.1845 70.5594 92.9624 70.5594C95.7403 70.5594 98 68.2993 98 65.5216C98 62.7439 95.7401 60.4841 92.9624 60.4841ZM92.9624 67.6881C91.7678 67.6881 90.7958 66.7161 90.7958 65.5216C90.7958 64.327 91.7678 63.355 92.9624 63.355C94.1569 63.355 95.1289 64.3268 95.1289 65.5216C95.1289 66.7163 94.1569 67.6881 92.9624 67.6881Z" fill="#0C0304"/>
<path d="M6.37844 29.7998C3.60074 29.7998 1.34081 32.0597 1.34081 34.8374C1.34081 37.6151 3.60055 39.8751 6.37844 39.8751C9.15632 39.8751 11.4161 37.6151 11.4161 34.8374C11.4161 32.0597 9.15613 29.7998 6.37844 29.7998ZM6.37844 37.004C5.18387 37.004 4.2119 36.032 4.2119 34.8374C4.2119 33.6429 5.18387 32.6709 6.37844 32.6709C7.5732 32.6709 8.54497 33.6429 8.54497 34.8374C8.54497 36.032 7.573 37.004 6.37844 37.004Z" fill="#0C0304"/>
<path d="M61.0059 64.0862C58.2282 64.0862 55.9683 66.3461 55.9683 69.1238C55.9683 71.9015 58.228 74.1614 61.0059 74.1614C63.7836 74.1614 66.0435 71.9015 66.0435 69.1238C66.0435 66.3461 63.7836 64.0862 61.0059 64.0862ZM61.0059 71.2902C59.8113 71.2902 58.8394 70.3182 58.8394 69.1236C58.8394 67.9291 59.8113 66.9571 61.0059 66.9571C62.2005 66.9571 63.1724 67.9291 63.1724 69.1236C63.1724 70.3182 62.2005 71.2902 61.0059 71.2902Z" fill="#0C0304"/>
<path d="M64.608 80.3625C61.8303 80.3625 59.5703 82.6225 59.5703 85.4002C59.5703 88.1779 61.8301 90.4378 64.608 90.4378C67.3858 90.4378 69.6456 88.1779 69.6456 85.4002C69.6456 82.6225 67.3857 80.3625 64.608 80.3625ZM64.608 87.5667C63.4134 87.5667 62.4414 86.5947 62.4414 85.4002C62.4414 84.2056 63.4134 83.2336 64.608 83.2336C65.8025 83.2336 66.7745 84.2056 66.7745 85.4002C66.7745 86.5947 65.8025 87.5667 64.608 87.5667Z" fill="#0C0304"/>
<path d="M57.4036 20.7751C54.6259 20.7751 52.366 23.0349 52.366 25.8128C52.366 28.5903 54.6257 30.8502 57.4036 30.8502C60.1815 30.8502 62.4414 28.5903 62.4412 25.8128C62.4412 23.0351 60.1813 20.7751 57.4036 20.7751ZM57.4036 27.9789C56.209 27.9789 55.2371 27.0072 55.2371 25.8126C55.2371 24.618 56.209 23.6461 57.4036 23.6461C58.5984 23.6461 59.5701 24.618 59.5701 25.8126C59.5701 27.0072 58.5982 27.9789 57.4036 27.9789Z" fill="#0C0304"/>
<path d="M49.1804 36.1807C46.4027 36.1807 44.1428 38.4406 44.1428 41.2183C44.1428 43.996 46.4025 46.2559 49.1804 46.2559C51.9581 46.2559 54.218 43.996 54.218 41.2183C54.218 38.4406 51.9581 36.1807 49.1804 36.1807ZM49.1804 43.3848C47.9858 43.3848 47.0139 42.4129 47.0139 41.2183C47.0139 40.0237 47.9858 39.0518 49.1804 39.0518C50.375 39.0518 51.3469 40.0237 51.3469 41.2183C51.3469 42.4129 50.375 43.3848 49.1804 43.3848Z" fill="#0C0304"/>
</g>
<defs>
<clipPath id="clip0_8_171">
<rect width="98" height="98" fill="white"/>
</clipPath>
</defs>
</svg>
