<svg width="31" height="31" viewBox="0 0 31 31" fill="none" xmlns="http://www.w3.org/2000/svg">
<path d="M24.8354 4.1123H6.16457C2.76533 4.1123 0 6.88649 0 10.2959V20.7036C0 24.1136 2.76533 26.8872 6.16457 26.8872H24.8354C28.2347 26.8872 31 24.113 31 20.7036V10.2959C31 6.88649 28.2347 4.1123 24.8354 4.1123ZM29.7347 20.7043C29.7347 23.4164 27.5369 25.6225 24.8354 25.6225H6.16457C3.46314 25.6225 1.26531 23.4158 1.26531 20.7043V10.2959C1.26531 7.5843 3.46314 5.37761 6.16457 5.37761H24.8354C27.5369 5.37761 29.7347 7.5843 29.7347 10.2959V20.7043Z" fill="#0C0304"/>
<path d="M21.1053 15.271L12.3399 10.1371C12.145 10.0232 11.9027 10.0213 11.706 10.1339C11.5092 10.2465 11.3878 10.4559 11.3878 10.683V20.9504C11.3878 21.1769 11.5092 21.3869 11.7053 21.4995C11.8028 21.5552 11.9116 21.583 12.0204 21.583C12.1311 21.583 12.2412 21.5539 12.3399 21.4963L21.1053 16.3636C21.2989 16.2504 21.4185 16.0422 21.4185 15.8177C21.4185 15.5931 21.2995 15.3843 21.1053 15.271ZM12.6531 19.8464V11.7864L19.5338 15.817L12.6531 19.8464Z" fill="#0C0304"/>
</svg>
